<svg width="36" height="36" viewBox="0 0 36 36" fill="none" xmlns="http://www.w3.org/2000/svg">
<path fill-rule="evenodd" clip-rule="evenodd" d="M17.7799 0C13.5575 0.00224246 9.47356 1.53303 6.25831 4.31863C3.04306 7.10424 0.906188 10.963 0.22978 15.205C-0.446628 19.4469 0.381529 23.7955 2.56619 27.473C4.75085 31.1505 8.14953 33.9173 12.1545 35.2785C13.0381 35.4463 13.3709 34.8858 13.3709 34.4092C13.3709 33.9326 13.3532 32.5507 13.3473 31.0399C8.39936 32.134 7.35382 28.9026 7.35382 28.9026C6.54682 26.8043 5.38051 26.2528 5.38051 26.2528C3.76653 25.1317 5.50128 25.1527 5.50128 25.1527C7.28903 25.2816 8.22856 27.0202 8.22856 27.0202C9.81309 29.7869 12.3901 28.9866 13.4033 28.519C13.5623 27.3469 14.0248 26.5495 14.5343 26.0969C10.5818 25.6413 6.42901 24.0885 6.42901 17.1521C6.40451 15.3532 7.0604 13.6136 8.26095 12.2931C8.07835 11.8374 7.46868 9.99692 8.43471 7.49694C8.43471 7.49694 9.92795 7.01134 13.3267 9.35244C16.242 8.54104 19.3178 8.54104 22.2331 9.35244C25.629 7.01134 27.1192 7.49694 27.1192 7.49694C28.0882 9.99093 27.4786 11.8314 27.2959 12.2931C28.5003 13.6138 29.1576 15.3565 29.1308 17.1581C29.1308 24.1095 24.9692 25.6413 21.0108 26.0879C21.647 26.6515 22.2154 27.7516 22.2154 29.4422C22.2154 31.8642 22.1948 33.8127 22.1948 34.4092C22.1948 34.8918 22.5158 35.4553 23.4171 35.2785C27.4226 33.9171 30.8216 31.1499 33.0062 27.4717C35.1908 23.7936 36.0185 19.4444 35.3414 15.202C34.6642 10.9597 32.5262 7.10085 29.3099 4.31572C26.0936 1.5306 22.0087 0.000821078 17.7858 0H17.7799Z" fill="currentColor"/>
<path d="M6.72935 25.993C6.69106 26.0833 6.54969 26.1103 6.43483 26.0472C6.31996 25.984 6.23456 25.8667 6.27579 25.7734C6.31703 25.6802 6.45545 25.6561 6.57031 25.7193C6.68518 25.7825 6.77353 25.9028 6.72935 25.993Z" fill="currentColor"/>
<path d="M7.45069 26.812C7.3897 26.8434 7.31992 26.8522 7.25329 26.8368C7.18667 26.8214 7.12736 26.7829 7.08549 26.7278C6.97062 26.6015 6.94705 26.427 7.0354 26.3488C7.12376 26.2706 7.28282 26.3067 7.39768 26.433C7.51254 26.5594 7.53905 26.7338 7.45069 26.812Z" fill="currentColor"/>
<path d="M8.15199 27.8516C8.04302 27.9297 7.85746 27.8516 7.75438 27.6955C7.72587 27.6675 7.70321 27.6339 7.68772 27.5967C7.67224 27.5596 7.66425 27.5196 7.66425 27.4793C7.66425 27.4389 7.67224 27.399 7.68772 27.3618C7.70321 27.3247 7.72587 27.2911 7.75438 27.2631C7.86335 27.188 8.04891 27.2631 8.15199 27.4162C8.25508 27.5693 8.25802 27.7735 8.15199 27.8516Z" fill="currentColor"/>
<path d="M9.10317 28.8587C9.00598 28.9698 8.80865 28.9398 8.64666 28.7897C8.48468 28.6395 8.44638 28.4354 8.54357 28.3273C8.64076 28.2191 8.83809 28.2492 9.00597 28.3963C9.17385 28.5435 9.20625 28.7506 9.10317 28.8587Z" fill="currentColor"/>
<path d="M10.4372 29.4466C10.3931 29.588 10.1928 29.6512 9.99252 29.591C9.79224 29.5309 9.65971 29.3624 9.698 29.218C9.73628 29.0736 9.93951 29.0075 10.1427 29.0736C10.3459 29.1398 10.4755 29.2993 10.4372 29.4466Z" fill="currentColor"/>
<path d="M11.8922 29.5481C11.8922 29.6954 11.7273 29.8218 11.5152 29.8248C11.3032 29.8278 11.1294 29.7075 11.1294 29.5601C11.1294 29.4127 11.2943 29.2864 11.5064 29.2834C11.7184 29.2803 11.8922 29.3977 11.8922 29.5481Z" fill="currentColor"/>
<path d="M13.247 29.317C13.2735 29.4644 13.1263 29.6178 12.9142 29.6539C12.7022 29.69 12.5166 29.6028 12.4901 29.4584C12.4636 29.314 12.6168 29.1576 12.8229 29.1185C13.0291 29.0794 13.2205 29.1696 13.247 29.317Z" fill="currentColor"/>
</svg>