<svg width="36" height="37" viewBox="0 0 36 37" fill="none" xmlns="http://www.w3.org/2000/svg">
<path d="M17.7862 3.27849C22.5385 3.27849 23.1012 3.29982 24.9702 3.38516C26.7071 3.46339 27.6451 3.76208 28.2704 4.01099C29.0972 4.33813 29.6947 4.73638 30.313 5.36932C30.9383 6.00938 31.3204 6.61387 31.64 7.46016C31.8832 8.10021 32.175 9.0674 32.2514 10.8382C32.3348 12.7584 32.3556 13.3344 32.3556 18.1917C32.3556 23.0561 32.3348 23.6321 32.2514 25.5452C32.175 27.3231 31.8832 28.2832 31.64 28.9232C31.3204 29.7695 30.9314 30.3811 30.313 31.0141C29.6877 31.6541 29.0972 32.0453 28.2704 32.3724C27.6451 32.6213 26.7002 32.92 24.9702 32.9982C23.0943 33.0836 22.5315 33.1049 17.7862 33.1049C13.034 33.1049 12.4712 33.0836 10.6023 32.9982C8.86532 32.92 7.92738 32.6213 7.30208 32.3724C6.4753 32.0453 5.87779 31.647 5.25944 31.0141C4.63414 30.374 4.25202 29.7695 3.93242 28.9232C3.68925 28.2832 3.39745 27.316 3.32102 25.5452C3.23765 23.625 3.21681 23.049 3.21681 18.1917C3.21681 13.3273 3.23765 12.7513 3.32102 10.8382C3.39745 9.06029 3.68925 8.10021 3.93242 7.46016C4.25202 6.61387 4.64109 6.00226 5.25944 5.36932C5.88474 4.72927 6.4753 4.33813 7.30208 4.01099C7.92738 3.76208 8.87227 3.46339 10.6023 3.38516C12.4712 3.29982 13.034 3.27849 17.7862 3.27849ZM17.7862 0C12.9575 0 12.3531 0.0213351 10.4564 0.106675C8.56657 0.192016 7.26734 0.50493 6.14181 0.952966C4.96764 1.42234 3.97411 2.04105 2.98753 3.05803C1.994 4.06789 1.38955 5.08486 0.930998 6.27962C0.49329 7.43883 0.187589 8.7616 0.104216 10.696C0.0208432 12.6446 0 13.2633 0 18.2059C0 23.1485 0.0208432 23.7673 0.104216 25.7088C0.187589 27.6431 0.49329 28.973 0.930998 30.1251C1.38955 31.327 1.994 32.344 2.98753 33.3538C3.97411 34.3637 4.96764 34.9895 6.13486 35.4518C7.26734 35.8998 8.55962 36.2127 10.4494 36.2981C12.3461 36.3834 12.9506 36.4047 17.7793 36.4047C22.608 36.4047 23.2124 36.3834 25.1091 36.2981C26.9989 36.2127 28.2982 35.8998 29.4237 35.4518C30.5909 34.9895 31.5844 34.3637 32.571 33.3538C33.5576 32.344 34.169 31.327 34.6206 30.1322C35.0583 28.973 35.364 27.6502 35.4474 25.7159C35.5308 23.7744 35.5516 23.1557 35.5516 18.213C35.5516 13.2704 35.5308 12.6517 35.4474 10.7102C35.364 8.77582 35.0583 7.44594 34.6206 6.29384C34.1829 5.08486 33.5784 4.06789 32.5849 3.05803C31.5983 2.04817 30.6048 1.42234 29.4376 0.960078C28.3051 0.512042 27.0128 0.199127 25.123 0.113787C23.2194 0.0213351 22.6149 0 17.7862 0Z" fill="#000100"/>
<path d="M17.7862 8.85403C12.7422 8.85403 8.64996 13.0428 8.64996 18.2059C8.64996 23.369 12.7422 27.5578 17.7862 27.5578C22.8303 27.5578 26.9225 23.369 26.9225 18.2059C26.9225 13.0428 22.8303 8.85403 17.7862 8.85403ZM17.7862 24.2722C14.5139 24.2722 11.8598 21.5555 11.8598 18.2059C11.8598 14.8563 14.5139 12.1396 17.7862 12.1396C21.0586 12.1396 23.7127 14.8563 23.7127 18.2059C23.7127 21.5555 21.0586 24.2722 17.7862 24.2722Z" fill="#000100"/>
<path d="M29.4167 8.48432C29.4167 9.69331 28.4579 10.6676 27.2838 10.6676C26.1027 10.6676 25.1508 9.6862 25.1508 8.48432C25.1508 7.27533 26.1096 6.30103 27.2838 6.30103C28.4579 6.30103 29.4167 7.28244 29.4167 8.48432Z" fill="#000100"/>
</svg>
